<svg xmlns="http://www.w3.org/2000/svg" width="1440" height="431" viewBox="0 0 1440 431" fill="none">
<path d="M-20.7921 50.1365C-2.46199 59.9617 11.9457 73.9012 22.8993 89.0995C45.9577 121.093 53.7335 158.659 50.6554 175.124C50.6554 175.124 82.4184 134.027 121.282 168.66C121.282 168.66 201.572 128.132 231.631 234.251L-23.7627 436.335L-20.7921 50.1289V50.1365Z" fill="#E7E3FF" stroke="#231F20" stroke-width="0.767593" stroke-miterlimit="10"/>
<path d="M1449.42 50.1365C1431.09 59.9617 1416.69 73.9012 1405.73 89.0995C1382.67 121.093 1374.9 158.659 1377.98 175.124C1377.98 175.124 1346.21 134.027 1307.35 168.66C1307.35 168.66 1227.06 128.132 1197 234.251L1452.39 436.335L1449.42 50.1289V50.1365Z" fill="#E7E3FF" stroke="#231F20" stroke-width="0.767593" stroke-miterlimit="10"/>
<g style="mix-blend-mode:multiply" opacity="0.15">
<path d="M121.289 168.659C121.289 168.659 128.819 194.957 118.786 220.625C108.754 246.294 178.382 234.787 159.546 197.904C149.69 178.607 154.357 158.742 166.677 161.874C166.677 161.874 140.916 158.366 121.289 168.652V168.659Z" fill="#6A4BE5"/>
</g>
<g style="mix-blend-mode:multiply" opacity="0.15">
<path d="M1307.34 168.659C1307.34 168.659 1299.81 194.957 1309.84 220.625C1319.88 246.294 1250.25 234.787 1269.09 197.904C1278.94 178.607 1274.27 158.742 1261.95 161.874C1261.95 161.874 1287.71 158.366 1307.34 168.652V168.659Z" fill="#6A4BE5"/>
</g>
<g style="mix-blend-mode:multiply" opacity="0.15">
<path d="M89.9636 154.789C96.5802 162.25 59.1754 165.935 68.5938 189.062C73.8902 202.057 66.6288 228.739 42.5801 256.119C42.5801 256.119 64.7482 224.617 49.8952 176.642C56.7882 168.107 69.4074 154.789 89.9559 154.789H89.9636Z" fill="#6A4BE5"/>
</g>
<g style="mix-blend-mode:multiply" opacity="0.15">
<path d="M1338.67 154.789C1332.05 162.25 1369.46 165.935 1360.04 189.062C1354.74 202.057 1362 228.739 1386.05 256.119C1386.05 256.119 1363.88 224.617 1378.74 176.642C1371.84 168.107 1359.22 154.789 1338.67 154.789H1338.67Z" fill="#6A4BE5"/>
</g>
<g style="mix-blend-mode:multiply" opacity="0.15">
<path fill-rule="evenodd" clip-rule="evenodd" d="M1406.58 292.702C1406.58 292.702 1444.96 357.141 1456.37 253.34V412.899C1456.37 412.899 1418.22 376.454 1406.58 292.694V292.702Z" fill="#6A4BE5"/>
</g>
<g style="mix-blend-mode:multiply" opacity="0.15">
<path fill-rule="evenodd" clip-rule="evenodd" d="M-23.7628 252.273C-23.7628 252.273 -19.4566 319.868 23.7204 293.294C23.7204 293.294 9.20527 318.831 -20.3317 313.965C-20.3317 313.965 -14.1372 382.526 59.2446 317.757L-23.5709 410.543L-23.7705 252.281L-23.7628 252.273Z" fill="#6A4BE5"/>
</g>
<mask id="path-9-inside-1_3394_17089" fill="white">
<path fill-rule="evenodd" clip-rule="evenodd" d="M645.99 430.15C665.573 438.103 686.453 444.241 708.367 448.248C751.217 456.084 793.248 454.901 831.801 446.213C847.651 543.401 936.263 628.324 1055.54 650.135C1159.09 669.07 1257.86 635.337 1314.31 570.304C1395.6 559.145 1461.18 507.039 1474.44 434.516C1491.79 339.663 1413.07 245.803 1298.62 224.874C1266.63 219.025 1235.24 219.492 1206.22 225.272C1197.63 198.848 1172.97 175.79 1139.86 166.814C1119.85 161.39 1099.9 161.964 1082.67 167.344C1076.46 126.599 1059.24 97.5836 1034.58 93.0744C1015.54 89.5927 995.471 101.344 978.004 123.41C938.648 65.3784 871.203 20.6422 789.3 5.66507C708.458 -9.11824 630.528 8.20065 573.377 47.4531C567.629 43.4448 561.411 40.0266 554.748 37.2837C503.07 16.0087 441.772 42.3951 407.551 96.9721C394.452 90.7743 380.19 87.371 365.268 87.371C316.931 87.371 275.512 123.081 258.173 173.813C223.915 176.155 195.002 195.701 186.94 225.444C183.13 239.502 184.49 253.948 189.982 267.313C187.88 266.875 185.764 266.462 183.637 266.073C65.5034 244.47 -44.9636 307.349 -63.0979 406.516C-81.2322 505.684 -0.166672 603.587 117.967 625.189C159.615 632.805 200.311 629.921 236.343 618.648C266.788 636.804 301.722 650.188 339.776 657.146C485.367 683.77 621.508 606.277 643.857 484.061C647.168 465.956 647.796 447.885 645.99 430.15Z"/>
</mask>
<path fill-rule="evenodd" clip-rule="evenodd" d="M645.99 430.15C665.573 438.103 686.453 444.241 708.367 448.248C751.217 456.084 793.248 454.901 831.801 446.213C847.651 543.401 936.263 628.324 1055.54 650.135C1159.09 669.07 1257.86 635.337 1314.31 570.304C1395.6 559.145 1461.18 507.039 1474.44 434.516C1491.79 339.663 1413.07 245.803 1298.62 224.874C1266.63 219.025 1235.24 219.492 1206.22 225.272C1197.63 198.848 1172.97 175.79 1139.86 166.814C1119.85 161.39 1099.9 161.964 1082.67 167.344C1076.46 126.599 1059.24 97.5836 1034.58 93.0744C1015.54 89.5927 995.471 101.344 978.004 123.41C938.648 65.3784 871.203 20.6422 789.3 5.66507C708.458 -9.11824 630.528 8.20065 573.377 47.4531C567.629 43.4448 561.411 40.0266 554.748 37.2837C503.07 16.0087 441.772 42.3951 407.551 96.9721C394.452 90.7743 380.19 87.371 365.268 87.371C316.931 87.371 275.512 123.081 258.173 173.813C223.915 176.155 195.002 195.701 186.94 225.444C183.13 239.502 184.49 253.948 189.982 267.313C187.88 266.875 185.764 266.462 183.637 266.073C65.5034 244.47 -44.9636 307.349 -63.0979 406.516C-81.2322 505.684 -0.166672 603.587 117.967 625.189C159.615 632.805 200.311 629.921 236.343 618.648C266.788 636.804 301.722 650.188 339.776 657.146C485.367 683.77 621.508 606.277 643.857 484.061C647.168 465.956 647.796 447.885 645.99 430.15Z" fill="url(#paint0_linear_3394_17089)"/>
<path d="M708.367 448.248L708.187 449.232L708.367 448.248ZM645.99 430.15L646.366 429.223L644.827 428.598L644.995 430.251L645.99 430.15ZM831.801 446.213L832.788 446.052L832.617 445.004L831.581 445.237L831.801 446.213ZM1055.54 650.135L1055.36 651.118L1055.54 650.135ZM1314.31 570.304L1314.17 569.314L1313.8 569.365L1313.55 569.649L1314.31 570.304ZM1474.44 434.516L1473.46 434.336L1474.44 434.516ZM1298.62 224.874L1298.8 223.891L1298.62 224.874ZM1206.22 225.272L1205.27 225.582L1205.55 226.427L1206.42 226.253L1206.22 225.272ZM1139.86 166.814L1139.6 167.78L1139.86 166.814ZM1082.67 167.344L1081.68 167.494L1081.86 168.645L1082.97 168.298L1082.67 167.344ZM1034.58 93.0744L1034.76 92.0907L1034.58 93.0744ZM978.004 123.41L977.176 123.971L977.941 125.1L978.788 124.031L978.004 123.41ZM789.3 5.66507L789.48 4.68138L789.3 5.66507ZM573.377 47.4531L572.805 48.2734L573.372 48.6692L573.943 48.2774L573.377 47.4531ZM554.748 37.2837L555.129 36.359V36.359L554.748 37.2837ZM407.551 96.9721L407.123 97.876L407.926 98.2559L408.398 97.5033L407.551 96.9721ZM258.173 173.813L258.241 174.81L258.904 174.765L259.119 174.136L258.173 173.813ZM186.94 225.444L185.975 225.182L186.94 225.444ZM189.982 267.313L189.779 268.292L191.624 268.677L190.907 266.933L189.982 267.313ZM183.637 266.073L183.457 267.056L183.637 266.073ZM-63.0979 406.516L-62.1142 406.696L-63.0979 406.516ZM117.967 625.189L117.787 626.173L117.967 625.189ZM236.343 618.648L236.856 617.789L236.472 617.56L236.045 617.693L236.343 618.648ZM339.776 657.146L339.597 658.13L339.776 657.146ZM643.857 484.061L644.841 484.241L643.857 484.061ZM708.547 447.264C686.7 443.269 665.886 437.15 646.366 429.223L645.614 431.076C665.26 439.055 686.206 445.212 708.187 449.232L708.547 447.264ZM831.581 445.237C793.161 453.895 751.266 455.076 708.547 447.264L708.187 449.232C751.168 457.091 793.336 455.906 832.021 447.188L831.581 445.237ZM1055.72 649.151C936.778 627.401 848.557 542.747 832.788 446.052L830.814 446.374C846.744 544.054 935.748 629.246 1055.36 651.118L1055.72 649.151ZM1313.55 569.649C1257.36 634.381 1158.97 668.032 1055.72 649.151L1055.36 651.118C1159.21 670.109 1258.35 636.294 1315.06 570.96L1313.55 569.649ZM1473.46 434.336C1460.3 506.328 1395.16 558.197 1314.17 569.314L1314.44 571.295C1396.05 560.093 1462.07 507.75 1475.43 434.696L1473.46 434.336ZM1298.44 225.858C1412.53 246.721 1490.68 340.191 1473.46 434.336L1475.43 434.696C1492.9 339.135 1413.61 244.886 1298.8 223.891L1298.44 225.858ZM1206.42 226.253C1235.31 220.497 1266.57 220.031 1298.44 225.858L1298.8 223.891C1266.69 218.018 1235.17 218.486 1206.03 224.292L1206.42 226.253ZM1139.6 167.78C1172.43 176.679 1196.79 199.52 1205.27 225.582L1207.18 224.963C1198.46 198.175 1173.51 174.901 1140.12 165.849L1139.6 167.78ZM1082.97 168.298C1100.01 162.978 1119.76 162.403 1139.6 167.78L1140.12 165.849C1119.93 160.377 1099.79 160.951 1082.37 166.389L1082.97 168.298ZM1034.4 94.0581C1046.37 96.2472 1056.63 104.398 1064.7 117.155C1072.77 129.915 1078.59 147.212 1081.68 167.494L1083.66 167.193C1080.54 146.731 1074.65 129.148 1066.39 116.086C1058.13 103.022 1047.44 94.4107 1034.76 92.0907L1034.4 94.0581ZM978.788 124.031C996.179 102.061 1015.91 90.6778 1034.4 94.0581L1034.76 92.0907C1015.16 88.5076 994.764 100.626 977.22 122.789L978.788 124.031ZM789.12 6.64876C870.777 21.581 937.981 66.1765 977.176 123.971L978.831 122.849C939.315 64.5804 871.628 19.7035 789.48 4.68138L789.12 6.64876ZM573.943 48.2774C630.863 9.18422 708.521 -8.09017 789.12 6.64876L789.48 4.68138C708.395 -10.1463 630.194 7.21708 572.811 46.6288L573.943 48.2774ZM554.367 38.2084C560.962 40.9232 567.116 44.3062 572.805 48.2734L573.949 46.6329C568.142 42.5833 561.859 39.13 555.129 36.359L554.367 38.2084ZM408.398 97.5033C442.439 43.2131 503.265 17.1702 554.367 38.2084L555.129 36.359C502.876 14.8471 441.105 41.5771 406.704 96.4408L408.398 97.5033ZM365.268 88.371C380.035 88.371 394.152 91.7385 407.123 97.876L407.978 96.0682C394.753 89.8101 380.344 86.371 365.268 86.371V88.371ZM259.119 174.136C276.358 123.7 317.464 88.371 365.268 88.371V86.371C316.398 86.371 274.667 122.463 257.227 173.489L259.119 174.136ZM187.906 225.705C195.828 196.478 224.29 177.131 258.241 174.81L258.105 172.815C223.54 175.178 194.177 194.924 185.975 225.182L187.906 225.705ZM190.907 266.933C185.49 253.751 184.158 239.531 187.906 225.705L185.975 225.182C182.101 239.474 183.49 254.145 189.057 267.693L190.907 266.933ZM183.457 267.056C185.576 267.444 187.684 267.856 189.779 268.292L190.186 266.334C188.075 265.895 185.952 265.479 183.817 265.089L183.457 267.056ZM-62.1142 406.696C-44.1075 308.226 65.6985 245.522 183.457 267.056L183.817 265.089C65.3083 243.418 -45.8197 306.471 -64.0816 406.336L-62.1142 406.696ZM118.147 624.206C0.388184 602.672 -80.1209 505.166 -62.1142 406.696L-64.0816 406.336C-82.3434 506.201 -0.721527 604.502 117.787 626.173L118.147 624.206ZM236.045 617.693C200.17 628.917 159.638 631.793 118.147 624.206L117.787 626.173C159.592 633.818 200.452 630.925 236.642 619.602L236.045 617.693ZM339.956 656.163C302.018 649.225 267.197 635.884 236.856 617.789L235.831 619.507C266.379 637.725 301.425 651.15 339.597 658.13L339.956 656.163ZM642.874 483.881C620.652 605.399 485.172 682.718 339.956 656.163L339.597 658.13C485.562 684.822 622.365 607.154 644.841 484.241L642.874 483.881ZM644.995 430.251C646.792 447.895 646.167 465.871 642.874 483.881L644.841 484.241C648.169 466.041 648.8 447.876 646.985 430.048L644.995 430.251Z" fill="black" mask="url(#path-9-inside-1_3394_17089)"/>
<path d="M1120.57 370.924C1112.07 295.424 1153.57 248.424 1205.57 226.424C1199.69 207.336 1185.63 191.952 1171.93 182.539C1159.53 174.019 1147.22 169.906 1137.4 167.248C1113.38 160.74 1084.32 165.209 1079.57 170.924C1068.57 199.924 1179.57 205.924 1142.07 235.424C1104.57 264.924 1099.57 327.424 1120.57 370.924Z" fill="#D3CBFB"/>
<path d="M344.435 318.817C352.935 243.317 310.899 196.746 258.899 174.746C264.774 155.659 278.885 132.827 292.567 119.785C306.612 106.396 321.087 95.6679 347.992 89.8782C372.329 84.6411 347.992 97.5927 339.039 101.311C319.815 109.296 277.338 140.599 312.092 174.746C346.126 208.186 366.743 259.974 344.435 318.817Z" fill="#D3CBFB"/>
<defs>
<linearGradient id="paint0_linear_3394_17089" x1="705.603" y1="0.427734" x2="607.513" y2="440.998" gradientUnits="userSpaceOnUse">
<stop stop-color="#D8D4FF"/>
<stop offset="0.565" stop-color="#E7E3FF"/>
<stop offset="1" stop-color="#E7E3FF"/>
</linearGradient>
</defs>
</svg>